<?xml version="1.0" standalone="no"?>
<!DOCTYPE svg PUBLIC "-//W3C//DTD SVG 1.1//EN" "http://www.w3.org/Graphics/SVG/1.1/DTD/svg11.dtd" >
<svg xmlns="http://www.w3.org/2000/svg">
<metadata>Generated by IcoMoon</metadata>
<defs>
<font id="Nebula" horiz-adv-x="1024">
<font-face units-per-em="1024" ascent="960" descent="-64" />
<missing-glyph horiz-adv-x="1024" />
<glyph unicode="&#x20;" horiz-adv-x="512" d="" />
<glyph unicode="&#xe900;" glyph-name="owl2" horiz-adv-x="1745" d="M568.422 412.608c25.206 0 45.64 20.677 45.64 46.182s-20.434 46.182-45.64 46.182c-25.206 0-45.64-20.677-45.64-46.182s20.434-46.182 45.64-46.182zM1694.875 893.356c12.823-14.949 19.35-34.449 17.84-54.168-3.8-49.389-38.434-455.165-168.418-646.82-38.798-56.123-91.424-101.042-152.671-130.313l-11.727-5.605c-58.429-27.621-122.611-42.208-189.027-42.208-64.846 0-127.537 13.983-184.855 40.334l-85.891-86.915c-13.722-13.892-32.351-21.686-51.776-21.686-19.422 0-38.059 7.794-51.78 21.686l-85.883 86.915c-57.321-26.351-120.013-40.334-184.866-40.334-66.416 0-130.598 14.586-189.029 42.208-62.847 26.984-117.526 70.262-158.507 125.451l-7.773 10.468c-129.984 191.655-162.561 597.431-166.359 646.82-1.518 19.719 4.845 39.225 17.667 54.168 12.823 14.933 31.036 24.056 50.569 25.326 2.667 0.178 66.393 4.264 157.182 4.264 316.809 0 522.86-45.964 612.449-136.611 2.135-2.166 4.244-4.344 6.33-6.544 2.086 2.2 4.198 4.39 6.33 6.544 89.589 90.648 295.644 136.611 612.443 136.611 90.757 0 154.51-4.085 157.184-4.264 19.532-1.264 37.74-10.387 50.567-25.326zM1229.593 93.779c89.638 0 173.928 38.999 237.314 109.807 89.949 100.454 149.534 416.239 173.697 644.209-23.332 0.651-50.548 1.118-80.388 1.118-291.233 0-503.565-42.941-567.948-114.852-20.237-22.621-37.808-47.959-52.228-75.315-14.674-27.844-41.453-44.944-70.398-44.944-28.953 0-55.732 17.086-70.406 44.93-14.431 27.391-32.002 52.73-52.235 75.33-64.379 71.918-276.7 114.852-567.944 114.852-29.834 0-57.020-0.467-80.349-1.118 24.242-228.055 83.877-543.929 173.663-644.209 63.398-70.808 147.674-109.807 237.316-109.807 89.646 0 173.925 38.999 237.314 109.807 20.215 22.592 37.793 47.916 52.251 75.344 14.67 27.815 41.453 44.901 70.398 44.901s55.717-17.086 70.391-44.916c14.438-27.398 32.009-52.736 52.224-75.302 63.408-70.834 147.687-109.833 237.329-109.833zM568.415 706.898c2.659 0 5.306-0.043 7.942-0.128-2.549 0.075-5.109 0.113-7.68 0.113-5.458 0-10.877-0.17-16.247-0.506 5.287 0.346 10.615 0.521 15.986 0.521zM568.677 210.811c-12.955 0-25.683 0.96-38.112 2.807 12.341-1.942 24.982-2.947 37.85-2.947 10.092 0 20.040 0.618 29.814 1.82-9.694-1.111-19.555-1.68-29.552-1.68zM1147.176 705.988c7.115 0.592 14.317 0.894 21.591 0.894 1.893 0 3.781-0.020 5.666-0.061-2.044 0.051-4.096 0.077-6.152 0.077-7.107 0-14.146-0.308-21.106-0.91zM1168.767 210.811c-14.45 0-28.615 1.191-42.401 3.482 13.623-2.382 27.629-3.622 41.916-3.622 9.133 0 18.148 0.504 27.022 1.494-8.719-0.895-17.575-1.354-26.537-1.354zM568.415 363.797c-54.575 0-98.968 44.965-98.968 100.253 0 55.266 44.396 100.242 98.968 100.242 54.575 0 98.96-44.976 98.96-100.242 0.008-55.288-44.385-100.253-98.96-100.253zM614.062 458.79c0 25.505-20.434 46.182-45.64 46.182s-45.64-20.677-45.64-46.182c0-25.505 20.434-46.182 45.64-46.182s45.64 20.677 45.64 46.182zM568.677 292.060c93.757 0 169.76 74.672 169.76 166.787s-76.004 166.786-169.76 166.786c-93.753 0-169.756-74.672-169.756-166.786s76.004-166.787 169.756-166.787zM1169.423 411.959c-25.206 0-45.64 20.677-45.64 46.182s20.434 46.182 45.64 46.182c25.206 0 45.636-20.677 45.636-46.182s-20.431-46.182-45.636-46.182zM1185.417 705.728c-5.287 0.346-10.619 0.521-15.99 0.521-2.655 0-5.302-0.043-7.942-0.128 2.552 0.075 5.112 0.112 7.684 0.112 5.458 0 10.873-0.17 16.247-0.505zM1139.613 211.843c9.694-1.111 19.558-1.68 29.556-1.68 12.955 0 25.683 0.96 38.112 2.807-12.341-1.942-24.982-2.947-37.854-2.947-10.088 0-20.040 0.618-29.814 1.82zM569.56 706.249c7.111 0 14.15-0.308 21.11-0.91-7.119 0.592-14.321 0.894-21.591 0.894-1.896 0-3.781-0.020-5.666-0.061 2.044 0.051 4.092 0.077 6.148 0.077zM542.542 211.517c8.719-0.895 17.575-1.354 26.537-1.354 14.45 0 28.615 1.191 42.401 3.482-13.627-2.382-27.633-3.622-41.92-3.622-9.129 0-18.144 0.504-27.018 1.494zM1268.398 463.402c0-55.288-44.392-100.253-98.971-100.253-54.572 0-98.964 44.965-98.96 100.253 0 55.266 44.389 100.242 98.96 100.242s98.971-44.976 98.971-100.242zM1169.423 411.959c-25.206 0-45.64 20.677-45.64 46.182s20.434 46.182 45.64 46.182c25.206 0 45.636-20.677 45.636-46.182s-20.431-46.182-45.636-46.182zM999.409 458.198c0-92.114 76.004-166.787 169.76-166.787 93.753 0 169.756 74.672 169.756 166.787s-76.004 166.786-169.756 166.786c-93.757 0-169.76-74.672-169.76-166.786z" />
<glyph unicode="&#xe901;" glyph-name="owl-sleep2" horiz-adv-x="1736" d="M1663.584 940.047c20.028-1.296 38.698-10.651 51.852-25.968 13.147-15.329 19.841-35.323 18.292-55.542-3.896-50.641-39.411-466.703-172.695-663.215-44.235-58.579-101.325-105.982-166.776-138.476l-1.796-0.89c-59.913-28.32-125.725-43.277-193.828-43.277-66.493 0-130.778 14.338-189.551 41.356l-88.073-89.117c-14.071-14.245-33.173-22.239-53.090-22.239s-39.026 7.994-53.094 22.239l-88.068 89.117c-58.773-27.018-123.058-41.356-189.558-41.356-68.103 0-133.915 14.957-193.832 43.277l-7.947 3.891c-64.111 31.401-119.85 77.855-162.555 135.475-133.285 196.512-166.69 612.575-170.585 663.215-1.557 20.218 4.968 40.219 18.116 55.542 13.148 15.311 31.824 24.666 51.853 25.968 2.735 0.183 68.080 4.371 161.174 4.371 324.855 0 536.144-47.129 628.008-140.074 2.186-2.221 4.35-4.454 6.489-6.71 2.139 2.256 4.303 4.501 6.489 6.71 91.864 92.945 303.153 140.074 628.001 140.074 93.059 0 158.435-4.189 161.175-4.371zM1235.803 97.313c91.57 0 177.673 40.161 242.423 113.072 91.888 103.446 152.756 428.624 177.437 663.376-23.832 0.67-51.636 1.152-82.118 1.152-297.503 0-514.406-44.219-580.174-118.269-20.674-23.293-38.625-49.387-53.355-77.556-14.988-28.672-42.345-46.28-71.914-46.28-29.574 0-56.932 17.593-71.92 46.267-14.741 28.205-32.692 54.299-53.359 77.569-65.768 74.057-282.657 118.269-580.174 118.269-30.476 0-58.248-0.481-82.079-1.152 24.764-234.839 85.683-560.112 177.402-663.376 64.764-72.911 150.855-113.072 242.425-113.072 91.577 0 177.668 40.161 242.425 113.072 20.647 23.265 38.605 49.343 53.373 77.586 14.988 28.643 42.347 46.238 71.914 46.238 29.569 0 56.919-17.595 71.907-46.251 14.75-28.213 32.701-54.308 53.348-77.541 64.777-72.942 150.869-113.103 242.439-113.103zM399.102 495.814c-49.835 39.237-90.279 52.073-90.279-27.314 6.487-54.526 30.001-74.251 51.957-99.435 46.547-36.989 117.37-64.528 203.939-64.528 80.206 0 138.006 30.106 182.869 60.006 28.414 26.477 58.397 47.32 64.309 103.956 0 78.643-39.070 61.416-90.219 22.982-38.812-29.164-96.020-60.020-156.959-60.020-60.202 0-129.523 35.936-165.616 64.352zM1332.723 495.182c49.835 39.237 90.279 52.070 90.279-27.316-6.487-54.526-30.001-74.251-51.957-99.435-46.547-36.989-117.37-64.528-203.939-64.528-80.206 0-138.006 30.106-182.869 60.006-28.414 26.477-58.397 47.32-64.309 103.956 0 78.643 39.070 61.416 90.219 22.982 38.812-29.164 96.022-60.020 156.959-60.020 60.202 0 129.523 35.936 165.616 64.354z" />
<glyph unicode="&#xe902;" glyph-name="battery-almost-full" d="M938.143 711.515h-938.143v-527.029h938.143v140.919h85.857v245.192h-85.857v140.919zM850.304 272.324h-762.466v351.353h762.466v-351.353zM258.262 331.803h-105.406v232.393h105.406v-232.393zM433.938 331.803h-105.406v232.393h105.406v-232.393zM609.615 331.803h-105.406v232.393h105.406v-232.393z" />
<glyph unicode="&#xe903;" glyph-name="charging-battery" d="M938.143 711.515h-938.143v-527.029h938.143v140.919h85.857v245.192h-85.857v140.919zM850.304 272.324h-762.466v351.353h762.466v-351.353zM365.706 360.162l68.751 68.742-31.6 31.609 122.451 122.446 47.134-47.121-68.742-68.742 31.6-31.609-122.46-122.455-47.134 47.13z" />
<glyph unicode="&#xe904;" glyph-name="chip" d="M183.044 847.474h-0.242c-37.038-0.542-67.162-31.13-67.162-68.186v-97.44h-100.568c-8.324 0-15.072-6.748-15.072-15.072s6.748-15.072 15.072-15.072h100.57v-79.244h-100.57c-8.324 0-15.072-6.748-15.072-15.072s6.748-15.072 15.072-15.072h100.57v-79.242h-100.57c-8.324-0.002-15.072-6.75-15.072-15.074s6.748-15.072 15.072-15.072h100.57v-79.242h-100.57c-8.324 0-15.072-6.748-15.072-15.072s6.748-15.072 15.072-15.072h100.57v-79.244h-100.57c-8.324 0-15.072-6.748-15.072-15.072s6.748-15.072 15.072-15.072h100.57v-51.54c0-8.32 6.752-15.072 15.072-15.072s15.072 6.752 15.072 15.072v616.672c0 20.68 16.8 37.74 37.48 38.062 8.32 0.12 14.972 6.954 14.832 15.294-0.122 8.24-6.834 14.832-15.054 14.832zM820.336 84.902h-636.488c-15.534 0-29.36 9.284-35.248 23.654-3.156 7.716-11.938 11.394-19.654 8.24-7.718-3.156-11.394-11.958-8.24-19.654 10.53-25.744 35.31-42.382 63.142-42.382h94.306v-103.684c0-8.324 6.748-15.072 15.072-15.072s15.072 6.748 15.072 15.072v103.684h79.244v-103.684c0-8.324 6.748-15.072 15.072-15.072s15.072 6.748 15.072 15.072v103.684h79.242v-103.684c0-8.324 6.748-15.072 15.072-15.072s15.072 6.748 15.072 15.072v103.684h79.242v-103.684c0-8.324 6.748-15.072 15.072-15.072s15.072 6.748 15.072 15.072v103.684h79.244v-103.684c0-8.324 6.748-15.072 15.072-15.072s15.072 6.748 15.072 15.072v103.684h74.49c8.32 0 15.072 6.752 15.072 15.072 0 8.336-6.752 15.070-15.072 15.070zM716.418 703.724h-408.836c-26.568 0-48.17-21.604-48.17-48.17v-408.858c0-26.568 21.604-48.17 48.17-48.17h408.838c26.568 0 48.17 21.604 48.17 48.17v408.858c0 26.568-21.604 48.17-48.172 48.17zM289.554 655.554c0 9.948 8.078 18.026 18.026 18.026h311.77v-157.414c-27.248-5.888-48.772-27.412-54.658-54.662h-111.072v77.29c28.476 5.566 50.020 30.708 50.020 60.792 0 34.144-27.794 61.936-61.956 61.936-30.084 0-55.222-21.542-60.792-49.998h-91.338v44.030zM634.426 487.63c22.708 0 41.178-18.488 41.178-41.198s-18.468-41.178-41.178-41.178c-22.872 0-41.198 18.65-41.198 41.178 0.002 22.57 18.378 41.198 41.198 41.198zM441.684 567.774c-17.43 0-31.812 14.176-31.812 31.812 0 17.524 14.268 31.792 31.812 31.792s31.812-14.268 31.812-31.792c0-17.696-14.408-31.812-31.812-31.812zM376.592 321.434c-8.742 4.904-14.65 14.288-14.65 25 0 15.816 12.882 28.678 28.698 28.678s28.678-12.862 28.678-28.678c-0.002-21.916-23.706-35.752-42.726-25zM498.492 228.67h-101.12v59.324c29.28 3.336 52.090 28.276 52.090 58.44 0 32.436-26.386 58.822-58.822 58.822-32.456 0-58.842-26.386-58.842-58.822 0-24.116 14.59-44.916 35.43-53.978v-63.786h-59.646c-9.948 0-18.026 8.098-18.026 18.026v334.684h92.904c0.128-0.208 8.228-30.942 41.016-41.018v-93.93c0-8.32 6.752-15.072 15.072-15.072h59.944v-202.69zM734.446 246.696c0-9.928-8.078-18.026-18.026-18.026h-187.784v65.18h205.81v-47.154zM734.446 323.994h-205.81v107.366h36.056c6.934-32.114 35.57-56.25 69.734-56.25 39.328 0 71.322 31.994 71.322 71.322 0 34.164-24.136 62.8-56.25 69.734 0 0-0.002 0-0.004 0v157.414h66.924c9.948 0 18.026-8.078 18.026-18.026v-331.56zM1008.928 542.314c8.324 0 15.072 6.748 15.072 15.072s-6.748 15.072-15.072 15.072h-100.57v79.244h100.57c8.324 0 15.072 6.748 15.072 15.072s-6.748 15.072-15.072 15.072h-100.57v97.44c0 37.6-30.586 68.206-68.206 68.206h-94.306v97.436c0 8.324-6.748 15.072-15.072 15.072s-15.072-6.748-15.072-15.072v-97.434h-79.244v97.434c0 8.324-6.748 15.072-15.072 15.072s-15.072-6.748-15.072-15.072v-97.434h-79.242v97.434c0 8.324-6.748 15.072-15.072 15.072s-15.072-6.748-15.072-15.072v-97.434h-79.242v97.434c0 8.324-6.748 15.072-15.072 15.072s-15.072-6.748-15.072-15.072v-97.434h-79.244v97.434c0 8.324-6.748 15.072-15.072 15.072s-15.072-6.748-15.072-15.072v-97.434h-34.82c-8.34 0-15.072-6.752-15.072-15.072s6.732-15.072 15.072-15.072c78.954 0 533.63 0 596.818 0 21 0 38.062-17.082 38.062-38.062v-656.324c0-10.51-4.18-20.298-11.796-27.552-6.028-5.748-6.27-15.294-0.522-21.302 2.974-3.114 6.934-4.682 10.912-4.682 3.738 0 7.476 1.386 10.41 4.16 13.626 13.002 21.142 30.546 21.142 49.376v91.19h100.57c8.324 0 15.072 6.748 15.072 15.072s-6.748 15.072-15.072 15.072h-100.57v79.244h100.57c8.324 0 15.072 6.748 15.072 15.072s-6.748 15.072-15.072 15.072h-100.57v79.242h100.57c8.324 0 15.072 6.748 15.072 15.072s-6.748 15.072-15.072 15.072h-100.57v79.242h100.568z" />
<glyph unicode="&#xe905;" glyph-name="chip-1" d="M994 498c16.568 0 30 13.432 30 30v160c0 16.568-13.432 30-30 30h-964c-16.568 0-30-13.432-30-30v-160c0-16.568 13.432-30 30-30 27.57 0 50-22.43 50-50s-22.43-50-50-50c-16.568 0-30-13.432-30-30v-160c0-16.568 13.432-30 30-30h222c16.568 0 30 13.432 30 30v50.002h60v-50.002c0-16.568 13.432-30 30-30h622c16.568 0 30 13.432 30 30v160c0 16.568-13.432 30-30 30-27.57 0-50 22.43-50 50s22.43 50 50 50zM964 342.158v-104.158h-43.666v50.002c0 16.568-13.432 30-30 30s-30-13.432-30-30v-50.002h-43.668v50.002c0 16.568-13.432 30-30 30s-30-13.432-30-30v-50.002h-43.666v50.002c0 16.568-13.432 30-30 30s-30-13.432-30-30v-50.002h-43.666v50.002c0 16.568-13.432 30-30 30s-30-13.432-30-30v-50.002h-43.668v50.002c0 16.568-13.432 30-30 30s-30-13.432-30-30v-50.002h-43.666v50.002c0 16.568-13.432 30-30 30h-120c-16.568 0-30-13.432-30-30v-50.002h-44v50.002c0 16.568-13.432 30-30 30s-30-13.432-30-30v-50.002h-58v104.158c46.122 13.090 80 55.584 80 105.842s-33.878 92.752-80 105.842v104.158h904v-104.158c-46.122-13.090-80-55.584-80-105.842s33.878-92.752 80-105.842zM814 618h-604c-16.568 0-30-13.432-30-30v-199.998c0-16.568 13.432-30 30-30h604c16.568 0 30 13.432 30 30v199.998c0 16.568-13.432 30-30 30zM381.334 418.002h-141.334v139.998h141.334v-139.998zM582.666 418.002h-141.332v139.998h141.332v-139.998zM784 418.002h-141.334v139.998h141.334v-139.998z" />
<glyph unicode="&#xe906;" glyph-name="empty-battery" d="M0 711.511v-527.027h938.143v140.918h85.857v245.195h-85.857v140.914h-938.143zM850.305 272.322h-762.467v351.351h762.467v-351.351z" />
<glyph unicode="&#xe907;" glyph-name="energy" d="M938.143 711.515h-938.143v-527.029h938.143v140.919h85.857v245.192h-85.857v140.919zM850.304 272.324h-762.466v351.353h762.466v-351.353zM258.262 331.803h-105.406v232.393h105.406v-232.393zM433.938 331.803h-105.406v232.393h105.406v-232.393zM609.615 331.803h-105.406v232.393h105.406v-232.393zM785.291 331.803h-105.406v232.393h105.406v-232.393z" />
<glyph unicode="&#xe908;" glyph-name="ethernet" d="M829.867 861.468l-47.804 47.804c-6.674 6.674-17.46 6.674-24.132 0l-95.61-95.61c-3.208-3.192-5-7.544-5-12.066s1.792-8.858 5-12.066l47.804-47.804c3.328-3.328 7.698-5 12.066-5s8.738 1.672 12.066 5l95.61 95.61c3.208 3.192 5 7.544 5 12.066s-1.792 8.858-5 12.066zM722.191 777.927l-23.672 23.672 71.478 71.476 23.672-23.672-71.478-71.476zM877.671 813.665l-47.804 47.804c-3.192 3.208-7.544 5-12.066 5s-8.858-1.792-12.066-5l-95.61-95.608c-6.674-6.674-6.674-17.46 0-24.132l47.804-47.804c3.192-3.208 7.544-5 12.066-5s8.858 1.81 12.066 5l95.61 95.61c6.674 6.67 6.674 17.456 0 24.13zM769.997 730.121l-23.672 23.672 71.476 71.476 23.672-23.672-71.476-71.476zM925.476 765.861l-47.804 47.804c-6.674 6.674-17.46 6.674-24.132 0l-95.61-95.61c-3.208-3.192-5-7.544-5-12.066s1.792-8.858 5-12.066l47.804-47.804c3.328-3.328 7.698-5 12.066-5s8.738 1.672 12.066 5l95.61 95.61c3.208 3.192 5 7.544 5 12.066s-1.792 8.856-5 12.066zM817.801 682.317l-23.672 23.672 71.476 71.476 23.672-23.672-71.476-71.476zM973.28 718.055l-47.804 47.806c-3.192 3.208-7.544 5-12.066 5s-8.858-1.792-12.066-5l-95.61-95.61c-6.674-6.674-6.674-17.46 0-24.132l47.804-47.804c3.192-3.208 7.544-5 12.066-5s8.858 1.792 12.066 5l95.61 95.61c6.672 6.672 6.672 17.458 0 24.13zM865.605 634.513l-23.672 23.672 71.476 71.476 23.672-23.672-71.476-71.476zM746.205 610.517l-71.716 71.716c-6.4 6.4-17.732 6.4-24.132 0l-155.359-155.377c-12.8-12.8-19.848-29.816-19.848-47.924s7.048-35.124 19.848-47.924c13.226-13.21 30.566-19.814 47.924-19.814s34.714 6.604 47.906 19.832l155.377 155.359c3.208 3.192 5 7.544 5 12.066s-1.792 8.858-5 12.066zM566.696 455.124c-13.108-13.124-34.442-13.124-47.566 0-6.348 6.366-9.848 14.798-9.848 23.792s3.498 17.426 9.848 23.792l143.293 143.293 47.566-47.582-143.293-143.295zM519.146 287.817l-262.931 262.933c-6.656 6.674-17.476 6.674-24.132 0-6.674-6.674-6.674-17.46 0-24.132l262.915-262.933c3.328-3.328 7.698-5 12.066-5s8.738 1.672 12.084 5c6.672 6.672 6.672 17.458-0.002 24.132zM614.738 192.207l-47.804 47.804c-6.674 6.674-17.46 6.674-24.132 0-6.674-6.674-6.674-17.46 0-24.132l47.804-47.804c3.328-3.328 7.698-5 12.066-5s8.738 1.672 12.066 5c6.674 6.674 6.674 17.46 0 24.132zM315.965 156.367l-95.61 95.61c-6.656 6.674-17.476 6.674-24.132 0l-53.658-53.658c-8.038-8.056-12.476-18.74-12.476-30.124s4.42-22.068 12.476-30.124l59.512-59.512c8.294-8.312 19.2-12.458 30.106-12.458 10.906 0.018 21.828 4.164 30.124 12.476l53.658 53.658c3.208 3.192 5 7.544 5 12.066 0.002 4.522-1.79 8.858-5 12.066zM238.191 102.675c-3.31-3.294-8.67-3.294-11.964 0l-59.512 59.512c-2.168 2.168-2.492 4.676-2.492 5.99s0.324 3.84 2.474 5.99l41.592 41.592 71.494-71.494-41.592-41.59zM220.357 108.545l-47.804 47.804c-6.4 6.4-17.732 6.4-24.132 0l-143.413-143.411c-3.208-3.192-5-7.544-5-12.066s1.792-8.858 5-12.066l47.804-47.804c3.328-3.328 7.698-5 12.066-5s8.738 1.672 12.066 5l143.413 143.413c6.672 6.672 6.672 17.458 0 24.13zM64.878-22.8l-23.672 23.672 119.28 119.28 23.672-23.672-119.28-119.28zM1009.12 682.233l-262.881 262.881c-19.848 19.848-52.156 19.848-71.988 0l-215.095-215.111c-3.208-3.192-5-7.544-5-12.066s1.792-8.858 5-12.066l119.52-119.502c6.4-6.4 17.732-6.4 24.132 0l59.632 59.648 47.582-47.582-59.648-59.634c-3.208-3.192-5-7.544-5-12.066s1.792-8.858 5-12.066l119.502-119.52c3.192-3.208 7.544-5 12.066-5s8.858 1.792 12.066 5l215.111 215.093c19.834 19.85 19.834 52.14 0.002 71.99zM984.97 634.377l-203.027-203.029-95.37 95.388 59.632 59.632c3.208 3.192 5 7.544 5 12.066s-1.792 8.858-5 12.066l-71.716 71.716c-6.4 6.4-17.732 6.4-24.132 0l-59.632-59.648-95.37 95.37 203.027 203.043c6.536 6.52 17.186 6.52 23.724 0l262.865-262.881c6.534-6.554 6.534-17.186-0.002-23.722zM817.903 395.372l-143.413 143.413c-6.674 6.674-17.46 6.674-24.132 0l-83.662-83.662c-12.698-12.698-34.85-12.698-47.566 0-6.348 6.366-9.848 14.798-9.848 23.792s3.498 17.426 9.848 23.792l83.662 83.662c6.674 6.674 6.674 17.46 0 24.132l-143.413 143.413c-6.656 6.674-17.476 6.674-24.132 0l-203.165-203.165c-1.878-1.878-3.294-4.164-4.13-6.674l-83.662-250.985c-2.030-6.126-0.444-12.886 4.13-17.46l191.217-191.217c3.242-3.26 7.612-5 12.066-5 1.81 0 3.636 0.29 5.394 0.87l250.985 83.662c2.508 0.854 4.796 2.252 6.674 4.13l203.147 203.165c6.674 6.672 6.674 17.458 0 24.132zM593.456 195.057l-237.143-79.054-176.301 176.301 79.054 237.179 188.247 188.247 119.28-119.28-71.594-71.596c-12.8-12.8-19.848-29.816-19.848-47.924s7.048-35.124 19.848-47.924c25.6-25.6 70.23-25.618 95.83 0l71.596 71.596 119.28-119.298-188.247-188.249zM471.326 216.101l-191.217 191.217c-6.656 6.674-17.476 6.674-24.132 0-6.674-6.674-6.674-17.46 0-24.132l191.217-191.217c3.328-3.328 7.698-5 12.066-5 4.37 0 8.738 1.672 12.066 5 6.672 6.674 6.672 17.46 0 24.132zM375.717 216.101l-95.61 95.61c-6.656 6.674-17.476 6.674-24.132 0-6.674-6.674-6.674-17.46 0-24.132l95.61-95.61c3.328-3.328 7.698-5 12.066-5s8.738 1.672 12.066 5c6.674 6.674 6.674 17.46 0 24.132z" />
<glyph unicode="&#xe909;" glyph-name="ethernet-1" d="M1009.114 682.233l-262.887 262.887c-19.848 19.832-52.157 19.848-71.989 0l-203.016-203.032-11.844 11.844c-6.656 6.674-17.476 6.674-24.132 0l-191.102-191.102 275.005-275.005c6.674-6.674 6.674-17.46 0-24.132-3.328-3.328-7.698-5-12.066-5s-8.738 1.672-12.066 5l-270.399 270.395-80.32-240.973c-2.048-6.128-0.444-12.902 4.13-17.46l35.739-35.739-41.593-41.593c-8.038-8.038-12.476-18.74-12.476-30.125 0-8.38 2.44-16.384 6.93-23.246l-132.015-132.015c-3.208-3.208-5-7.544-5-12.066s1.792-8.874 5-12.066l47.805-47.805c3.328-3.328 7.698-5 12.066-5s8.738 1.672 12.066 5l131.999 131.999c7.048-4.59 15.138-6.896 23.246-6.896 10.906 0 21.812 4.164 30.125 12.458l41.593 41.593 35.739-35.739c3.242-3.26 7.612-5 12.066-5 1.81 0 3.618 0.29 5.394 0.87l240.973 80.32-55.263 55.263c-6.674 6.674-6.674 17.46 0 24.132s17.46 6.674 24.132 0l59.871-59.871 191.102 191.102c6.674 6.674 6.674 17.46 0 24.132l-11.828 11.844 203.032 203.032c19.816 19.834 19.816 52.143-0.016 71.993zM238.151 102.679c-3.294-3.294-8.652-3.294-11.964 0l-59.513 59.513c-2.15 2.15-2.492 4.676-2.492 5.99s0.324 3.822 2.474 5.99l41.593 41.593 71.477-71.477-41.575-41.609zM375.695 191.957c-3.328-3.328-7.698-5-12.066-5s-8.738 1.672-12.066 5l-95.61 95.612c-6.674 6.674-6.674 17.46 0 24.132 6.656 6.674 17.476 6.674 24.132 0l95.612-95.612c6.672-6.672 6.672-17.458-0.002-24.132zM471.307 191.957c-3.328-3.328-7.698-5-12.066-5s-8.738 1.672-12.066 5l-191.222 191.222c-6.674 6.674-6.674 17.46 0 24.132 6.656 6.674 17.476 6.674 24.132 0l191.222-191.222c6.672-6.672 6.672-17.458 0-24.132zM913.4 729.662l23.672-23.672-71.477-71.477-23.672 23.672 71.477 71.477zM817.79 825.273l23.672-23.672-71.477-71.477-23.672 23.672 71.477 71.477zM566.679 455.118c-12.698-12.698-34.851-12.698-47.567 0-6.348 6.366-9.848 14.796-9.848 23.792 0 8.994 3.498 17.426 9.848 23.792l143.297 143.313 47.583-47.583-143.313-143.315zM984.963 634.376l-203.032-203.032-95.39 95.39 59.651 59.633c3.208 3.208 5 7.544 5 12.066s-1.792 8.874-5 12.066l-71.717 71.717c-6.4 6.4-17.732 6.4-24.132 0l-59.633-59.651-95.372 95.372 203.032 203.032c6.536 6.52 17.186 6.52 23.724 0l23.774-23.758-83.562-83.544c-3.208-3.208-5-7.544-5-12.066s1.792-8.874 5-12.066l191.22-191.22c3.208-3.208 7.544-5 12.066-5s8.874 1.792 12.066 5l83.544 83.544 23.758-23.758c6.54-6.554 6.54-17.188 0.002-23.724z" />
<glyph unicode="&#xe90a;" glyph-name="half-battery" d="M938.143 711.516h-938.143v-527.027h938.143v140.918h85.857v245.19h-85.857v140.918zM850.305 272.327h-762.467v351.351h762.467v-351.351zM258.261 331.806h-105.405v232.392h105.405v-232.392zM433.936 331.806h-105.405v232.392h105.405v-232.392z" />
<glyph unicode="&#xe90b;" glyph-name="hdd" d="M818 960h-612c-33.084 0-60-26.916-60-60v-904c0-33.084 26.916-60 60-60h612c33.084 0 60 26.916 60 60v904c0 33.084-26.916 60-60 60zM818-4h-612v904h612c0.038-923.378 0.2-904 0-904zM741.63 253.182c-5.854 15.254-22.426 44.64-97.502 123.872 65.38 43.63 105.872 117.54 105.872 197.966 0 131.234-106.766 238-238 238s-238-106.766-238-238c0-124.272 96.696-229.648 222.448-237.522-1.364-41.312-4.202-137.83 9.92-174.626 24.974-65.056 98.098-97.304 162.786-72.476 65.010 24.952 97.436 97.764 72.476 162.786 0.002-0.002 0.002 0 0 0zM334 575.020c0 98.15 79.85 178 178 178s178-79.85 178-178c0-63.938-34.206-122.382-88.622-153.962-27.346 27.526-48.106 47.382-48.398 47.66-18.256 17.438-48.732 5.814-50.636-19.438-0.026-0.344-1.602-21.422-3.25-51.814-93.936 6.554-165.094 85.558-165.094 177.554zM647.652 146.41c-33.974-13.036-72.228 3.99-85.268 37.962-11.274 29.372-5.754 163.58-4.214 195.154 22.98-23.148 115.876-117.7 127.448-147.848 13.070-34.050-3.906-72.196-37.966-85.268zM528.66 550.080c13.87 9.382 17.412 27.76 8.28 41.6-14.232 21.618-48.776 16.074-54.36-10.798-5.020-26.702 24.026-45.294 46.080-30.802zM333.42 117.862c-3.732 17.878-21.566 27.866-38.12 22.84-15.202-4.546-24.942-20.854-20-37.42 5.668-17.392 23.242-24.496 37.42-19.96 14.572 4.422 23.608 18.99 20.7 34.54z" />
<glyph unicode="&#xe90c;" glyph-name="keyboard" d="M542 557v64.34c0 28.486 23.326 51.66 52 51.66 86.496 0 156.868 70.132 156.868 156.34v81.66h-60v-81.66c0-53.122-43.456-96.34-96.868-96.34-61.758 0-112-50.090-112-111.66v-64.34h-482v-572h1024v572zM964 45h-904v452h904zM383.466 173h321.334v-60h-321.334zM254.934 173h64.266v-60h-64.266zM126.4 173h64.266v-60h-64.266zM769.066 173h64.268v-60h-64.268zM190.666 301h64.266v-60h-64.266zM319.2 301h64.266v-60h-64.266zM447.734 301h64.266v-60h-64.266zM576.268 301h64.266v-60h-64.266zM704.8 301h64.266v-60h-64.266zM833.334 301h64.266v-60h-64.266zM126.4 429h64.266v-60h-64.266zM254.934 429h64.266v-60h-64.266zM383.466 429h64.266v-60h-64.266zM512 429h64.268v-60h-64.268zM640.534 429h64.268v-60h-64.268zM769.066 429h64.268v-60h-64.268z" />
<glyph unicode="&#xe90d;" glyph-name="low-battery" d="M938.143 325.403h85.857v245.195h-85.857v140.914h-938.143v-527.027h938.143v140.918zM850.305 272.322h-762.467v351.351h762.467v-351.351zM258.261 331.802h-105.405v232.392h105.405v-232.392z" />
<glyph unicode="&#xe90e;" glyph-name="owl" d="M330.111 425.095c15.281 0 27.669 21.672 27.669 48.407s-12.388 48.402-27.669 48.402c-15.282 0-27.67-21.668-27.67-48.402s12.388-48.407 27.67-48.407zM1013.055 928.986c7.774-15.669 11.731-36.108 10.813-56.776-2.302-51.766-23.302-477.077-102.105-677.953-23.523-58.827-55.431-105.91-92.561-136.589l-7.111-5.874c-35.422-28.951-74.334-44.241-114.602-44.241-39.313 0-77.324 14.66-112.075 42.275l-52.072-91.095c-8.319-14.561-19.616-22.733-31.392-22.733s-23.073 8.172-31.392 22.733l-52.072 91.095c-34.749-27.615-72.758-42.275-112.077-42.275-40.267 0-79.178 15.29-114.604 44.241-38.103 28.283-71.254 73.642-96.099 131.49l-4.712 10.973c-78.806 200.876-98.557 626.187-100.86 677.953-0.92 20.668 2.937 41.113 10.711 56.776 7.774 15.652 18.817 25.215 30.659 26.545 1.617 0.187 40.253 4.469 95.295 4.469 192.073 0 317-48.176 371.318-143.188 1.29-2.27 2.568-4.553 3.834-6.859 1.266 2.306 2.544 4.601 3.838 6.859 54.313 95.011 179.241 143.188 371.311 143.188 55.022 0 93.676-4.282 95.298-4.469 11.842-1.325 22.88-10.887 30.659-26.545zM730.964 90.923c54.346 0 105.447 40.874 143.876 115.089 54.538 105.292 90.661 436.276 105.308 675.22-14.143 0.682-30.646 1.172-48.734 1.172-176.57 0-305.299-45.008-344.334-120.38-12.272-23.71-22.925-50.268-31.666-78.941-8.897-29.184-25.133-47.108-42.68-47.108-17.551 0-33.788 17.909-42.684 47.093-8.749 28.71-19.403 55.268-31.67 78.956-39.032 75.38-167.756 120.38-344.332 120.38-18.088 0-34.57-0.489-48.714-1.172 14.698-239.033 50.853-570.113 105.288-675.22 38.437-74.215 89.532-115.089 143.879-115.089 54.35 0 105.446 40.874 143.878 115.089 12.255 23.679 22.913 50.225 31.678 78.971 8.897 29.155 25.133 47.063 42.68 47.063s33.78-17.908 42.676-47.079c8.753-28.717 19.407-55.276 31.662-78.926 38.445-74.244 89.539-115.118 143.888-115.118zM330.107 733.552c1.611 0 3.216-0.045 4.815-0.134-1.547 0.078-3.099 0.118-4.657 0.118-3.309 0-6.594-0.179-9.851-0.53 3.205 0.362 6.437 0.546 9.693 0.546zM330.265 213.586c-7.855 0-15.571 1.004-23.107 2.941 7.482-2.032 15.146-3.088 22.949-3.088 6.117 0 12.15 0.647 18.075 1.909-5.877-1.163-11.856-1.761-17.917-1.761zM680.997 732.598c4.313 0.621 8.679 0.938 13.091 0.938 1.147 0 2.29-0.022 3.432-0.064-1.237 0.054-2.482 0.081-3.727 0.081-4.309 0-8.577-0.322-12.796-0.954zM694.088 213.586c-8.761 0-17.351 1.249-25.711 3.65 8.262-2.494 16.753-3.797 25.416-3.797 5.538 0 11.002 0.532 16.384 1.565-5.288-0.938-10.658-1.417-16.089-1.417zM330.107 373.936c-33.089 0-60.004 47.129-60.004 105.079 0 57.926 26.918 105.066 60.004 105.066s59.997-47.14 59.997-105.066c0.004-57.95-26.911-105.079-59.997-105.079zM357.78 473.502c0 26.735-12.388 48.402-27.669 48.402s-27.67-21.668-27.67-48.402c0-26.735 12.388-48.407 27.67-48.407s27.669 21.672 27.669 48.407zM330.265 298.746c56.842 0 102.92 78.266 102.92 174.813 0 96.549-46.078 174.817-102.92 174.817s-102.921-78.268-102.921-174.817c0-96.547 46.080-174.813 102.921-174.813zM694.485 424.415c-15.282 0-27.673 21.672-27.673 48.407s12.39 48.402 27.673 48.402c15.282 0 27.668-21.668 27.668-48.402s-12.386-48.407-27.668-48.407zM704.18 732.326c-3.203 0.362-6.435 0.546-9.691 0.546-1.614 0-3.219-0.045-4.817-0.134 1.548 0.078 3.101 0.118 4.657 0.118 3.31 0 6.595-0.179 9.851-0.53zM676.413 214.667c5.878-1.163 11.854-1.761 17.916-1.761 7.856 0 15.573 1.004 23.106 2.941-7.479-2.032-15.143-3.088-22.946-3.088-6.119 0-12.153 0.647-18.076 1.909zM330.801 732.872c4.31 0 8.579-0.322 12.797-0.954-4.315 0.621-8.681 0.938-13.090 0.938-1.148 0-2.293-0.022-3.435-0.064 1.239 0.054 2.482 0.081 3.728 0.081zM314.419 214.323c5.288-0.938 10.655-1.417 16.089-1.417 8.761 0 17.349 1.249 25.707 3.65-8.26-2.494-16.752-3.797-25.414-3.797-5.536 0-11.002 0.532-16.382 1.565zM754.491 478.335c0-57.95-26.915-105.079-60.002-105.079s-60.002 47.129-59.998 105.079c0 57.926 26.911 105.066 59.998 105.066 33.083 0 60.002-47.14 60.002-105.066zM694.485 424.415c-15.282 0-27.673 21.672-27.673 48.407s12.39 48.402 27.673 48.402c15.282 0 27.668-21.668 27.668-48.402s-12.386-48.407-27.668-48.407zM591.409 472.879c0-96.547 46.080-174.813 102.92-174.813s102.92 78.266 102.92 174.813c0 96.549-46.080 174.817-102.92 174.817s-102.92-78.268-102.92-174.817z" />
<glyph unicode="&#xe90f;" glyph-name="owl-sleep" d="M982.397 955.532c11.842-1.325 22.88-10.888 30.659-26.545 7.774-15.67 11.731-36.108 10.813-56.776-2.302-51.766-23.302-477.073-102.105-677.953-26.157-59.879-59.912-108.339-98.611-141.554l-1.061-0.909c-35.422-28.951-74.334-44.241-114.602-44.241-39.313 0-77.324 14.66-112.075 42.275l-52.072-91.095c-8.319-14.561-19.616-22.733-31.392-22.733s-23.073 8.172-31.392 22.733l-52.072 91.095c-34.749-27.615-72.758-42.275-112.077-42.275-40.267 0-79.178 15.29-114.605 44.241l-4.699 3.977c-37.906 32.1-70.862 79.585-96.113 138.486-78.806 200.88-98.557 626.187-100.86 677.953-0.92 20.668 2.937 41.113 10.711 56.776 7.774 15.651 18.816 25.214 30.658 26.545 1.617 0.187 40.253 4.468 95.295 4.468 192.074 0 317.001-48.177 371.314-143.187 1.294-2.27 2.572-4.552 3.838-6.859 1.266 2.306 2.544 4.601 3.838 6.859 54.317 95.010 179.241 143.187 371.311 143.187 55.022 0 93.676-4.282 95.298-4.468zM729.469 94.073c54.141 0 105.050 41.050 143.335 115.585 54.329 105.742 90.317 438.147 104.911 678.115-14.090 0.685-30.532 1.177-48.554 1.177-175.903 0-304.148-45.201-343.036-120.897-12.222-23.811-22.835-50.484-31.543-79.279-8.864-29.31-25.039-47.31-42.521-47.31-17.486 0-33.661 17.985-42.525 47.295-8.716 28.833-19.329 55.505-31.547 79.294-38.887 75.703-167.125 120.897-343.034 120.897-18.019 0-34.44-0.492-48.53-1.177 14.642-240.058 50.661-572.561 104.891-678.115 38.292-74.535 89.195-115.585 143.337-115.585 54.145 0 105.048 41.050 143.337 115.585 12.206 23.781 22.823 50.438 31.556 79.307 8.864 29.282 25.039 47.268 42.521 47.268s33.653-17.986 42.516-47.28c8.72-28.84 19.333-55.513 31.543-79.266 38.298-74.564 89.199-115.614 143.344-115.614zM234.76 501.428c-29.466 40.108-53.378 53.23-53.378-27.922 3.835-55.738 17.737-75.899 30.719-101.646 27.522-37.81 69.396-65.962 120.581-65.962 47.422 0 81.6 30.777 108.125 61.342 16.798 27.066 34.525 48.374 38.019 106.267 0 80.392-23.097 62.779-53.342 23.495-22.946-29.815-56.772-61.354-92.802-61.354-35.595 0-76.581 36.733-97.922 65.782zM786.772 500.781c29.467 40.108 53.379 53.229 53.379-27.922-3.838-55.738-17.74-75.903-30.72-101.646-27.521-37.81-69.399-65.962-120.582-65.962-47.419 0-81.596 30.777-108.122 61.342-16.802 27.066-34.529 48.374-38.023 106.267 0 80.391 23.101 62.779 53.342 23.491 22.95-29.811 56.775-61.35 92.803-61.35 35.594 0 76.583 36.733 97.923 65.782z" />
<glyph unicode="&#xe910;" glyph-name="ssd" d="M880 736c0 8.832-7.152 16-16 16h-640c-8.848 0-16-7.168-16-16v-576c0-8.832 7.152-16 16-16h640c8.848 0 16 7.168 16 16v16h32v32h-32v32h32v32h-32v32h32v32h-32v32h32v32h-32v32h32v32h-32v32h32v32h-32v32h32v32h-32v32h32v32h-32v32h32v32h-32zM848 176h-608v544h608zM408 496h16c30.88 0 56 25.12 56 56s-25.12 56-56 56h-16c-13.232 0-24 10.768-24 24s10.768 24 24 24h16c13.232 0 24-10.768 24-24v-8h32v8c0 30.88-25.12 56-56 56h-16c-30.88 0-56-25.12-56-56s25.12-56 56-56h16c13.232 0 24-10.768 24-24s-10.768-24-24-24h-16c-13.232 0-24 10.768-24 24v8h-32v-8c0-30.88 25.12-56 56-56zM552 496h16c30.88 0 56 25.12 56 56s-25.12 56-56 56h-16c-13.232 0-24 10.768-24 24s10.768 24 24 24h16c13.232 0 24-10.768 24-24v-8h32v8c0 30.88-25.12 56-56 56h-16c-30.88 0-56-25.12-56-56s25.12-56 56-56h16c13.232 0 24-10.768 24-24s-10.768-24-24-24h-16c-13.232 0-24 10.768-24 24v8h-32v-8c0-30.88 25.12-56 56-56zM656 496h48c35.296 0 64 28.704 64 64v64c0 35.296-28.704 64-64 64h-48c-8.848 0-16-7.168-16-16v-160c0-8.832 7.152-16 16-16zM672 656h32c17.648 0 32-14.352 32-32v-64c0-17.648-14.352-32-32-32h-32zM272 480h496v-32h-496zM480 432h288v-32h-288zM960 816h-800c-8.848 0-16-7.168-16-16v-32c0-8.816-7.168-16-16-16s-16 7.184-16 16v32c0 8.832-7.152 16-16 16h-32c-26.464 0-48-21.536-48-48v-640c0-26.464 21.536-48 48-48h896c26.464 0 48 21.536 48 48v640c0 26.464-21.536 48-48 48zM112.016 240h-64.016v32h64.016zM112.016 304h-64.016v32h64.016zM112.016 368h-64.016v32h64.016zM112.016 432h-64.016v32h64zM112 496h-64v32h64zM112 560h-64v32h64zM48 624v32h64v-32zM976 128c0-8.816-7.168-16-16-16h-896c-8.832 0-16 7.184-16 16v80h64c17.648 0 32 14.352 32 32v416c0 17.648-14.352 32-32 32h-64v80c0 8.816 7.168 16 16 16h16v-16c0-26.464 21.536-48 48-48s48 21.536 48 48v16h784c8.832 0 16-7.184 16-16zM280 192c13.232 0 24 10.768 24 24s-10.768 24-24 24-24-10.768-24-24 10.768-24 24-24zM280 224c4.4 0 8-3.584 8-8s-3.6-8-8-8-8 3.584-8 8 3.6 8 8 8zM280 656c13.232 0 24 10.768 24 24s-10.768 24-24 24-24-10.768-24-24 10.768-24 24-24zM280 688c4.4 0 8-3.584 8-8s-3.6-8-8-8-8 3.584-8 8 3.6 8 8 8zM808 192c13.232 0 24 10.768 24 24s-10.768 24-24 24-24-10.768-24-24 10.768-24 24-24zM808 224c4.4 0 8-3.584 8-8s-3.6-8-8-8-8 3.584-8 8 3.6 8 8 8zM808 656c13.232 0 24 10.768 24 24s-10.768 24-24 24-24-10.768-24-24 10.768-24 24-24zM808 688c4.4 0 8-3.584 8-8s-3.6-8-8-8-8 3.584-8 8 3.6 8 8 8zM736 304h-64c-8.848 0-16-7.168-16-16v-64c0-8.832 7.152-16 16-16h64c8.848 0 16 7.168 16 16v64c0 8.832-7.152 16-16 16zM720 240h-32v32h32zM624 304h-64c-8.848 0-16-7.168-16-16v-64c0-8.832 7.152-16 16-16h64c8.848 0 16 7.168 16 16v64c0 8.832-7.152 16-16 16zM608 240h-32v32h32zM512 288h-160c-8.848 0-16-7.168-16-16v-48c0-8.832 7.152-16 16-16h160c8.848 0 16 7.168 16 16v48c0 8.832-7.152 16-16 16zM496 240h-128v16h128z" />
<glyph unicode="&#xe911;" glyph-name="ssd2" d="M210.114 405.572c0-30.55 24.856-55.406 55.406-55.406h492.96c30.55 0 55.406 24.856 55.406 55.406v230.318c0 30.55-24.856 55.406-55.406 55.406h-492.96c-30.55 0-55.406-24.856-55.406-55.406zM240.114 635.89c0 14.010 11.398 25.406 25.406 25.406h492.96c14.010 0 25.406-11.396 25.406-25.406v-230.318c0-14.010-11.396-25.406-25.406-25.406h-492.96c-14.008 0-25.406 11.396-25.406 25.406zM863.54 960h-703.080c-8.284 0-15-6.714-15-15v-86.72c0-8.286 6.716-15 15-15s15 6.714 15 15v71.72h673.080v-661.36c0-8.286 6.714-15 15-15s15 6.714 15 15v676.36c0 8.286-6.716 15-15 15zM863.54 213.44c-8.286 0-15-6.714-15-15v-86.976h-673.080v676.616c0 8.286-6.716 15-15 15s-15-6.714-15-15v-837.080c0-8.286 6.716-15 15-15h703.080c8.286 0 15 6.714 15 15v247.44c0 8.284-6.716 15-15 15zM454.574 0.65v-34.65h-58.894v34.65zM539.428 0.65v-34.65h-54.854v34.65zM628.32 0.65v-34.65h-58.892v34.65zM719.236 0.65v-34.65h-60.916v34.65zM365.68-34h-60.914v34.65h60.914zM749.236-34v49.65c0 8.286-6.714 15-15 15h-444.47c-8.284 0-15-6.714-15-15v-49.65h-99.306v115.462h673.080v-115.462zM813.888 848.024c0 26.096-21.23 47.326-47.326 47.326-26.094 0-47.324-21.23-47.324-47.326 0-26.094 21.23-47.324 47.324-47.324s47.326 21.23 47.326 47.324zM749.236 848.024c0 9.552 7.772 17.326 17.324 17.326s17.326-7.774 17.326-17.326-7.774-17.324-17.326-17.324-17.324 7.77-17.324 17.324zM304.766 848.024c0 26.096-21.23 47.326-47.326 47.326s-47.326-21.23-47.326-47.326c0-26.094 21.23-47.324 47.326-47.324s47.326 21.23 47.326 47.324zM240.114 848.024c0 9.552 7.772 17.326 17.326 17.326s17.326-7.774 17.326-17.326-7.772-17.324-17.326-17.324-17.326 7.77-17.326 17.324zM719.236 193.44c0-26.096 21.23-47.326 47.324-47.326 26.096 0 47.326 21.23 47.326 47.326 0 26.094-21.23 47.324-47.326 47.324-26.092 0-47.324-21.23-47.324-47.324zM783.888 193.44c0-9.552-7.774-17.326-17.326-17.326s-17.324 7.774-17.324 17.326 7.772 17.324 17.324 17.324 17.326-7.772 17.326-17.324zM257.44 146.114c26.094 0 47.326 21.23 47.326 47.326 0 26.094-21.23 47.324-47.326 47.324s-47.326-21.23-47.326-47.324c0-26.096 21.232-47.326 47.326-47.326zM257.44 210.764c9.552 0 17.326-7.772 17.326-17.324s-7.772-17.326-17.326-17.326-17.326 7.774-17.326 17.326 7.774 17.324 17.326 17.324zM614.498 431.662c2.808-2.79 6.608-4.354 10.566-4.354h0.056c1.342 0.006 32.984 0.128 45.61 0.348 44.488 0.778 76.778 39.92 76.778 93.076 0 55.878-31.482 93.422-78.34 93.422h-44.422c-3.982 0-7.802-1.584-10.618-4.404-2.812-2.818-4.39-6.64-4.382-10.624v-154.268c0-1.1 0.126-2.168 0.35-3.2 0.164-3.762 1.72-7.332 4.402-9.996zM669.168 584.154c35.64 0 48.34-32.762 48.34-63.422 0-29.984-14.802-62.514-47.3-63.080-6.876-0.12-19.888-0.212-30.194-0.272-0.060 18.418-0.152 48.972-0.152 63.524 0 12.202-0.052 44.152-0.088 63.25zM517.798 424.918c31.030 0 58.064 20.376 62.888 47.392 3.654 20.462-5.898 47.29-43.662 61.218-20.702 7.636-39.91 15.97-44.87 18.148-4.95 3.656-7.35 9.478-6.446 15.774 1.148 7.998 7.318 14.426 16.506 17.192 25.552 7.706 48.7-10.774 49.278-11.24 6.338-5.278 15.766-4.45 21.080 1.876 5.33 6.342 4.512 15.804-1.83 21.134-1.44 1.208-35.694 29.446-77.18 16.958-20.352-6.13-34.74-22.092-37.548-41.654-2.618-18.23 5.28-35.764 20.606-45.756 0.664-0.434 1.358-0.812 2.082-1.134 0.928-0.414 23.034-10.252 47.94-19.44 17.576-6.484 26.51-16.618 24.512-27.8-1.988-11.14-15.010-22.666-33.356-22.666-17.508 0-34.41 7.116-45.208 19.032-5.562 6.138-15.048 6.606-21.188 1.042s-6.606-15.048-1.042-21.188c16.39-18.090 41.6-28.888 67.438-28.888zM347.816 424.918c31.030 0 58.066 20.376 62.89 47.392 3.654 20.46-5.898 47.29-43.664 61.218-20.702 7.636-39.91 15.97-44.87 18.148-4.95 3.658-7.348 9.478-6.446 15.774 1.148 7.998 7.318 14.426 16.506 17.192 25.554 7.706 48.702-10.774 49.276-11.24 6.34-5.276 15.764-4.446 21.082 1.876 5.33 6.342 4.51 15.804-1.83 21.134-1.438 1.208-35.69 29.448-77.18 16.958-20.352-6.13-34.74-22.092-37.548-41.654-2.618-18.23 5.278-35.764 20.606-45.756 0.664-0.434 1.358-0.812 2.082-1.134 0.928-0.414 23.034-10.252 47.94-19.44 17.576-6.484 26.51-16.618 24.512-27.8-1.99-11.142-15.010-22.666-33.356-22.666-17.508 0-34.41 7.116-45.208 19.032-5.562 6.138-15.048 6.606-21.188 1.042s-6.606-15.048-1.042-21.188c16.39-18.090 41.602-28.888 67.438-28.888z" />
<glyph unicode="&#xe912;" glyph-name="swap" d="M333.448 236.204v277.266l50.328-50.328 117.83 117.832-250.802 250.802-250.804-250.804 117.832-117.83 50.328 50.328v-442.554h355.252v165.29h-189.964zM491.094 103.232h-290.618v488.256l-82.644-82.644-72.128 72.128 205.1 205.102 205.102-205.102-72.128-72.128-82.644 82.644v-387.6h189.962v-100.656zM96.908 592.404l142.468 142.468 22.851-22.851-142.468-142.468-22.851 22.851zM906.168 432.858l-50.328-50.328v442.554h-355.25v-165.29h189.962v-277.264l-50.328 50.328-117.832-117.832 250.804-250.804 250.804 250.806-117.832 117.83zM568.096 315.028l72.128 72.13 82.644-82.644v387.598h-189.962v100.656h290.618v-488.256l82.644 82.644 72.128-72.128-205.1-205.104-205.1 205.104zM761.758 183.991l142.468 142.468 22.851-22.851-142.468-142.468-22.851 22.851z" />
<glyph unicode="&#xe913;" glyph-name="termo" d="M554.666 320.007v511.994c0 70.691-57.307 127.999-127.999 127.999s-127.999-57.307-127.999-127.999h-170.664v-85.333h170.664v-42.666h-85.331v-85.333h85.333v-42.666h-85.333v-85.333h85.333v-42.666h-170.666v-85.333h170.664v-42.666c-94.255-70.691-113.359-204.408-42.666-298.663 70.691-94.255 204.408-113.359 298.663-42.666s113.359 204.408 42.666 298.663c-12.128 16.172-26.494 30.538-42.666 42.666zM426.667 21.345c-70.691 0-127.999 57.307-127.999 127.999-0.030 45.759 24.372 88.053 63.999 110.933 13.66 7.874 21.864 22.642 21.334 38.4v533.326c0 23.564 19.102 42.666 42.666 42.666s42.666-19.102 42.666-42.666v-537.594c-0.53-15.758 7.674-30.526 21.334-38.4 38.338-22.102 62.539-62.437 63.999-106.665 0-70.693-57.305-127.999-127.999-127.999zM469.333 149.343c0-23.564-19.102-42.666-42.666-42.666s-42.666 19.102-42.666 42.666c0 23.564 19.102 42.666 42.666 42.666s42.666-19.102 42.666-42.666zM725.332 789.336c0-23.564-19.102-42.666-42.666-42.666s-42.666 19.102-42.666 42.666c0 23.564 19.102 42.666 42.666 42.666s42.666-19.102 42.666-42.666zM853.33 704.003h42.666v85.333h-42.666c-70.691 0-127.999-57.307-127.999-127.999s57.307-127.999 127.999-127.999h42.666v85.333h-42.666c-23.564 0-42.666 19.102-42.666 42.666s19.102 42.666 42.666 42.666z" />
<glyph unicode="&#xe914;" glyph-name="wifi" d="M1014.64-9.33l-959.957 959.957c-12.479 12.479-32.767 12.479-45.246 0s-12.479-32.767 0-45.246l99.068-99.068c-31.807-14.655-63.037-30.527-93.116-48.766-7.296-4.416-12.543-11.647-14.527-19.967s-0.512-17.151 4.096-24.383l85.564-135.93c51.070 33.662 106.555 61.053 165.049 81.916l50.942-50.942c-65.021-19.903-126.394-48.254-181.944-85.052l68.093-108.155c65.277 43.646 140.538 72.381 220.918 86.14l56.317-56.317c-89.34-7.36-172.664-36.414-243.189-83.9l68.285-108.411c61.821 42.43 136.506 67.453 217.014 67.453 32.959 0 64.765-4.608 95.228-12.479l362.096-362.096c6.272-6.272 14.463-9.408 22.655-9.408s16.383 3.136 22.655 9.344c12.479 12.543 12.479 32.767 0 45.31zM1023.088 737.516c-1.92 8.32-7.168 15.551-14.527 20.031-149.049 90.556-320.818 138.426-496.554 138.426-92.924 0-184.632-13.759-272.5-39.742l160.505-160.505c36.606 5.376 73.981 8.256 111.995 8.256 155.641 0 300.339-46.846 421.485-126.714l85.564 135.866c4.544 7.296 6.080 16.061 4.032 24.383zM512.007 639.984c-18.239 0-36.286-0.704-54.142-2.112l131.77-131.77c88.444-12.031 170.68-43.582 241.717-91.132l68.093 108.219c-111.227 73.661-244.341 116.795-387.439 116.795zM675.264 420.474l97.852-97.852 24.127 38.334c-37.374 25.151-78.524 44.862-121.979 59.517zM512.007 256.002c-67.965 0-130.81-21.631-182.712-57.981l155.577-247.093c5.888-9.28 16.127-14.911 27.135-14.911s21.247 5.632 27.071 14.911l155.577 247.093c-51.838 36.35-114.683 57.981-182.648 57.981z" />
<glyph unicode="&#xe915;" glyph-name="newspaper" d="M896 704v128h-896v-704c0-35.346 28.654-64 64-64h864c53.022 0 96 42.978 96 96v544h-128zM832 128h-768v640h768v-640zM128 640h640v-64h-640zM512 512h256v-64h-256zM512 384h256v-64h-256zM512 256h192v-64h-192zM128 512h320v-320h-320z" />
<glyph unicode="&#xe916;" glyph-name="headphones" d="M288 384h-64v-448h64c17.6 0 32 14.4 32 32v384c0 17.6-14.4 32-32 32zM736 384c-17.602 0-32-14.4-32-32v-384c0-17.6 14.398-32 32-32h64v448h-64zM1024 448c0 282.77-229.23 512-512 512s-512-229.23-512-512c0-61.412 10.83-120.29 30.656-174.848-19.478-33.206-30.656-71.87-30.656-113.152 0-112.846 83.448-206.188 192-221.716v443.418c-31.914-4.566-61.664-15.842-87.754-32.378-5.392 26.718-8.246 54.364-8.246 82.676 0 229.75 186.25 416 416 416s416-186.25 416-416c0-28.314-2.83-55.968-8.22-82.696-26.1 16.546-55.854 27.848-87.78 32.418v-443.44c108.548 15.532 192 108.874 192 221.714 0 41.274-11.178 79.934-30.648 113.138 19.828 54.566 30.648 113.452 30.648 174.866z" />
<glyph unicode="&#xe917;" glyph-name="video-camera" d="M384 672c0 88.366 71.634 160 160 160s160-71.634 160-160c0-88.366-71.634-160-160-160s-160 71.634-160 160zM0 672c0 88.366 71.634 160 160 160s160-71.634 160-160c0-88.366-71.634-160-160-160s-160 71.634-160 160zM768 352v96c0 35.2-28.8 64-64 64h-640c-35.2 0-64-28.8-64-64v-320c0-35.2 28.8-64 64-64h640c35.2 0 64 28.8 64 64v96l256-160v448l-256-160zM640 192h-512v192h512v-192z" />
<glyph unicode="&#xe918;" glyph-name="pacman" d="M964.73 781.196c-93.902 109.45-233.21 178.804-388.73 178.804-282.77 0-512-229.23-512-512s229.23-512 512-512c155.52 0 294.828 69.356 388.728 178.804l-324.728 333.196 324.73 333.196zM704 839.398c39.432 0 71.398-31.964 71.398-71.398 0-39.432-31.966-71.398-71.398-71.398s-71.398 31.966-71.398 71.398c0 39.432 31.966 71.398 71.398 71.398z" />
<glyph unicode="&#xe91b;" glyph-name="connection" horiz-adv-x="1280" d="M640 384c105.87 0 201.87-43.066 271.402-112.598l-90.468-90.468c-46.354 46.356-110.356 75.066-180.934 75.066s-134.578-28.71-180.934-75.066l-90.468 90.468c69.532 69.532 165.532 112.598 271.402 112.598zM187.452 452.548c120.88 120.88 281.598 187.452 452.548 187.452s331.668-66.572 452.55-187.452l-90.51-90.508c-96.706 96.704-225.28 149.96-362.040 149.96-136.762 0-265.334-53.256-362.038-149.962l-90.51 90.51zM988.784 825.562c106.702-45.132 202.516-109.728 284.782-191.996v0l-90.508-90.508c-145.056 145.056-337.92 224.942-543.058 224.942-205.14 0-398-79.886-543.058-224.942l-90.51 90.51c82.268 82.266 178.082 146.862 284.784 191.994 110.504 46.738 227.852 70.438 348.784 70.438s238.278-23.7 348.784-70.438zM576 64c0 35.346 28.654 64 64 64s64-28.654 64-64c0-35.346-28.654-64-64-64s-64 28.654-64 64z" />
<glyph unicode="&#xe945;" glyph-name="envelop" d="M928 832h-832c-52.8 0-96-43.2-96-96v-640c0-52.8 43.2-96 96-96h832c52.8 0 96 43.2 96 96v640c0 52.8-43.2 96-96 96zM398.74 409.628l-270.74-210.892v501.642l270.74-290.75zM176.38 704h671.24l-335.62-252-335.62 252zM409.288 398.302l102.712-110.302 102.71 110.302 210.554-270.302h-626.528l210.552 270.302zM625.26 409.628l270.74 290.75v-501.642l-270.74 210.892z" />
<glyph unicode="&#xe952;" glyph-name="stopwatch" d="M512.002 766.788v65.212h128v64c0 35.346-28.654 64-64.002 64h-191.998c-35.346 0-64-28.654-64-64v-64h128v-65.212c-214.798-16.338-384-195.802-384-414.788 0-229.75 186.25-416 416-416s416 186.25 416 416c0 218.984-169.202 398.448-384 414.788zM706.276 125.726c-60.442-60.44-140.798-93.726-226.274-93.726s-165.834 33.286-226.274 93.726c-60.44 60.44-93.726 140.8-93.726 226.274s33.286 165.834 93.726 226.274c58.040 58.038 134.448 91.018 216.114 93.548l-21.678-314.020c-1.86-26.29 12.464-37.802 31.836-37.802s33.698 11.512 31.836 37.802l-21.676 314.022c81.666-2.532 158.076-35.512 216.116-93.55 60.44-60.44 93.726-140.8 93.726-226.274s-33.286-165.834-93.726-226.274z" />
<glyph unicode="&#xe953;" glyph-name="calendar" d="M320 576h128v-128h-128zM512 576h128v-128h-128zM704 576h128v-128h-128zM128 192h128v-128h-128zM320 192h128v-128h-128zM512 192h128v-128h-128zM320 384h128v-128h-128zM512 384h128v-128h-128zM704 384h128v-128h-128zM128 384h128v-128h-128zM832 960v-64h-128v64h-448v-64h-128v64h-128v-1024h960v1024h-128zM896 0h-832v704h832v-704z" />
<glyph unicode="&#xe962;" glyph-name="floppy-disk" d="M896 960h-896v-1024h1024v896l-128 128zM512 832h128v-256h-128v256zM896 64h-768v768h64v-320h576v320h74.978l53.022-53.018v-714.982z" />
<glyph unicode="&#xe963;" glyph-name="drive" d="M192 64h640c106.038 0 192 85.96 192 192h-1024c0-106.040 85.962-192 192-192zM832 192h64v-64h-64v64zM960 832h-896l-64-512h1024z" />
<glyph unicode="&#xe964;" glyph-name="database" d="M512 960c-282.77 0-512-71.634-512-160v-128c0-88.366 229.23-160 512-160s512 71.634 512 160v128c0 88.366-229.23 160-512 160zM512 416c-282.77 0-512 71.634-512 160v-192c0-88.366 229.23-160 512-160s512 71.634 512 160v192c0-88.366-229.23-160-512-160zM512 128c-282.77 0-512 71.634-512 160v-192c0-88.366 229.23-160 512-160s512 71.634 512 160v192c0-88.366-229.23-160-512-160z" />
<glyph unicode="&#xe9a5;" glyph-name="rocket" d="M704 896l-320-320h-192l-192-256c0 0 203.416 56.652 322.066 30.084l-322.066-414.084 421.902 328.144c58.838-134.654-37.902-328.144-37.902-328.144l256 192v192l320 320 64 320-320-64z" />
<glyph unicode="&#xe9b5;" glyph-name="power" d="M384 960l-384-512h384l-256-512 896 640h-512l384 384z" />
<glyph unicode="&#xe9c1;" glyph-name="cloud" d="M1024 302.458c0 82.090-56.678 150.9-132.996 169.48-3.242 128.7-108.458 232.062-237.862 232.062-75.792 0-143.266-35.494-186.854-90.732-24.442 31.598-62.69 51.96-105.708 51.96-73.81 0-133.642-59.874-133.642-133.722 0-6.436 0.48-12.76 1.364-18.954-11.222 2.024-22.766 3.138-34.57 3.138-106.998 0.002-193.732-86.786-193.732-193.842 0-107.062 86.734-193.848 193.73-193.848l656.262 0.012c96.138 0.184 174.008 78.212 174.008 174.446z" />
<glyph unicode="&#xe9c2;" glyph-name="cloud-download" d="M891.004 599.94c-3.242 128.698-108.458 232.060-237.862 232.060-75.792 0-143.266-35.494-186.854-90.732-24.442 31.598-62.69 51.96-105.708 51.96-73.81 0-133.642-59.876-133.642-133.722 0-6.436 0.48-12.76 1.364-18.954-11.222 2.024-22.766 3.138-34.57 3.138-106.998 0.002-193.732-86.786-193.732-193.842 0-107.062 86.734-193.848 193.73-193.848h91.76l226.51-234.51 226.51 234.51 111.482 0.012c96.138 0.184 174.008 78.21 174.008 174.446 0 82.090-56.678 150.9-132.996 169.482zM512 128l-192 192h128v192h128v-192h128l-192-192z" />
<glyph unicode="&#xe9c3;" glyph-name="cloud-upload" d="M892.268 573.51c2.444 11.11 3.732 22.648 3.732 34.49 0 88.366-71.634 160-160 160-14.222 0-28.014-1.868-41.132-5.352-24.798 77.352-97.29 133.352-182.868 133.352-87.348 0-161.054-58.336-184.326-138.17-22.742 6.622-46.792 10.17-71.674 10.17-141.384 0-256-114.616-256-256 0-141.388 114.616-256 256-256h128v-192h256v192h224c88.366 0 160 71.632 160 160 0 78.72-56.854 144.162-131.732 157.51zM576 320v-192h-128v192h-160l224 224 224-224h-160z" />
<glyph unicode="&#xe9c4;" glyph-name="cloud-check" d="M892.268 445.51c2.442 11.108 3.732 22.646 3.732 34.49 0 88.366-71.634 160-160 160-14.224 0-28.014-1.868-41.134-5.352-24.796 77.352-97.288 133.352-182.866 133.352-87.348 0-161.054-58.336-184.326-138.17-22.742 6.62-46.792 10.17-71.674 10.17-141.384 0-256-114.616-256-256 0-141.382 114.616-256 256-256h608c88.366 0 160 71.632 160 160 0 78.718-56.854 144.16-131.732 157.51zM416 192l-160 160 64 64 96-96 224 224 64-64-288-288z" />
<glyph unicode="&#xea26;" glyph-name="volume-high" horiz-adv-x="1088" d="M890.040 37.96c-12.286 0-24.566 4.686-33.942 14.056-18.744 18.746-18.744 49.136 0 67.882 87.638 87.642 135.904 204.16 135.904 328.1 0 123.938-48.266 240.458-135.904 328.098-18.744 18.746-18.744 49.138 0 67.882s49.138 18.744 67.882 0c105.77-105.772 164.022-246.4 164.022-395.98s-58.252-290.208-164.022-395.98c-9.372-9.372-21.656-14.058-33.94-14.058zM719.53 128.47c-12.286 0-24.566 4.686-33.942 14.056-18.744 18.744-18.744 49.136 0 67.882 131.006 131.006 131.006 344.17 0 475.176-18.744 18.746-18.744 49.138 0 67.882 18.744 18.742 49.138 18.744 67.882 0 81.594-81.59 126.53-190.074 126.53-305.466 0-115.39-44.936-223.876-126.53-305.47-9.372-9.374-21.656-14.060-33.94-14.060v0zM549.020 218.98c-12.286 0-24.568 4.686-33.942 14.058-18.746 18.746-18.746 49.134 0 67.88 81.1 81.1 81.1 213.058 0 294.156-18.746 18.746-18.746 49.138 0 67.882s49.136 18.744 67.882 0c118.53-118.53 118.53-311.392 0-429.922-9.372-9.368-21.656-14.054-33.94-14.054zM416.006 0c-8.328 0-16.512 3.25-22.634 9.374l-246.626 246.626h-114.746c-17.672 0-32 14.326-32 32v320c0 17.672 14.328 32 32 32h114.746l246.626 246.628c9.154 9.154 22.916 11.89 34.874 6.936 11.958-4.952 19.754-16.622 19.754-29.564v-832c0-12.944-7.796-24.612-19.754-29.564-3.958-1.64-8.118-2.436-12.24-2.436z" />
<glyph unicode="&#xea27;" glyph-name="volume-medium" d="M719.53 128.47c-12.286 0-24.566 4.686-33.942 14.056-18.744 18.744-18.744 49.136 0 67.882 131.006 131.006 131.006 344.17 0 475.176-18.744 18.746-18.744 49.138 0 67.882 18.744 18.742 49.138 18.744 67.882 0 81.594-81.59 126.53-190.074 126.53-305.466 0-115.39-44.936-223.876-126.53-305.47-9.372-9.374-21.656-14.060-33.94-14.060v0zM549.020 218.98c-12.286 0-24.566 4.686-33.942 14.058-18.746 18.746-18.746 49.134 0 67.88 81.1 81.1 81.1 213.058 0 294.156-18.746 18.746-18.746 49.138 0 67.882s49.136 18.744 67.882 0c118.53-118.53 118.53-311.392 0-429.922-9.372-9.368-21.656-14.054-33.94-14.054zM416.006 0c-8.328 0-16.512 3.25-22.634 9.374l-246.626 246.626h-114.746c-17.672 0-32 14.326-32 32v320c0 17.672 14.328 32 32 32h114.746l246.626 246.628c9.154 9.154 22.916 11.89 34.874 6.936 11.958-4.952 19.754-16.622 19.754-29.564v-832c0-12.944-7.796-24.612-19.754-29.564-3.958-1.64-8.118-2.436-12.24-2.436z" />
<glyph unicode="&#xea28;" glyph-name="volume-low" d="M549.020 218.98c-12.286 0-24.566 4.686-33.942 14.058-18.746 18.746-18.746 49.134 0 67.88 81.1 81.1 81.1 213.058 0 294.156-18.746 18.746-18.746 49.138 0 67.882s49.136 18.744 67.882 0c118.53-118.53 118.53-311.392 0-429.922-9.372-9.368-21.656-14.054-33.94-14.054zM416.006 0c-8.328 0-16.512 3.25-22.634 9.374l-246.626 246.626h-114.746c-17.672 0-32 14.326-32 32v320c0 17.672 14.328 32 32 32h114.746l246.626 246.628c9.154 9.154 22.916 11.89 34.874 6.936 11.958-4.952 19.754-16.622 19.754-29.564v-832c0-12.944-7.796-24.612-19.754-29.564-3.958-1.64-8.118-2.436-12.24-2.436z" />
<glyph unicode="&#xea29;" glyph-name="volume-mute" d="M416.006 0c-8.328 0-16.512 3.25-22.634 9.374l-246.626 246.626h-114.746c-17.672 0-32 14.326-32 32v320c0 17.672 14.328 32 32 32h114.746l246.626 246.628c9.154 9.154 22.916 11.89 34.874 6.936 11.958-4.952 19.754-16.622 19.754-29.564v-832c0-12.944-7.796-24.612-19.754-29.564-3.958-1.64-8.118-2.436-12.24-2.436z" />
<glyph unicode="&#xea2a;" glyph-name="volume-mute2" d="M960 340.852v-84.852h-84.852l-107.148 107.148-107.148-107.148h-84.852v84.852l107.148 107.148-107.148 107.148v84.852h84.852l107.148-107.148 107.148 107.148h84.852v-84.852l-107.148-107.148 107.148-107.148zM416.006 0c-8.328 0-16.512 3.25-22.634 9.374l-246.626 246.626h-114.746c-17.672 0-32 14.326-32 32v320c0 17.672 14.328 32 32 32h114.746l246.626 246.628c9.154 9.154 22.916 11.89 34.874 6.936 11.958-4.952 19.754-16.622 19.754-29.564v-832c0-12.944-7.796-24.612-19.754-29.564-3.958-1.64-8.118-2.436-12.24-2.436z" />
<glyph unicode="&#xea80;" glyph-name="embed2" horiz-adv-x="1280" d="M832 224l96-96 320 320-320 320-96-96 224-224zM448 672l-96 96-320-320 320-320 96 96-224 224zM701.298 809.481l69.468-18.944-191.987-704.026-69.468 18.944 191.987 704.026z" />
<glyph unicode="&#xea81;" glyph-name="terminal" d="M0 896v-896h1024v896h-1024zM960 64h-896v768h896v-768zM896 768h-768v-640h768v640zM448 448h-64v-64h-64v-64h-64v64h64v64h64v64h-64v64h-64v64h64v-64h64v-64h64v-64zM704 320h-192v64h192v-64z" />
<glyph unicode="&#xeabd;" glyph-name="tux" d="M567.656 223.084c-81.944-38.118-158.158-37.716-209.34-34.020-61.052 4.41-110.158 21.124-131.742 35.732-13.3 9.006-31.384 5.522-40.39-7.782-9.004-13.302-5.52-31.386 7.782-40.39 34.698-23.486 96.068-40.954 160.162-45.58 10.866-0.784 22.798-1.278 35.646-1.278 55.782 0 126.626 5.316 202.42 40.57 14.564 6.778 20.878 24.074 14.104 38.64-6.776 14.566-24.076 20.872-38.642 14.108zM890.948 266.184c2.786 252.688 28.762 730.206-454.97 691.612-477.6-38.442-350.964-542.968-358.082-711.95-6.308-89.386-35.978-198.648-77.896-309.846h129.1c13.266 47.122 23.024 93.72 27.232 138.15 7.782-5.428 16.108-10.674 24.994-15.7 14.458-8.518 26.884-19.844 40.040-31.834 30.744-28.018 65.59-59.774 133.712-63.752 4.572-0.262 9.174-0.394 13.676-0.394 68.896 0 116.014 30.154 153.878 54.382 18.14 11.612 33.818 21.64 48.564 26.452 41.91 13.12 78.532 34.296 105.904 61.252 4.276 4.208 8.242 8.538 11.962 12.948 15.246-55.878 36.118-118.758 59.288-181.504h275.65c-66.174 102.224-134.436 202.374-133.052 330.184zM124.11 403.648c0 0.016 0 0.030-0.002 0.046-4.746 82.462 34.71 151.832 88.126 154.936 53.412 3.106 100.56-61.228 105.304-143.692 0-0.014 0.004-0.030 0.004-0.044 0.256-4.446 0.368-8.846 0.37-13.206-16.924-4.256-32.192-10.436-45.872-17.63-0.052 0.612-0.092 1.216-0.152 1.83 0 0.008 0 0.018 0 0.026-4.57 46.81-29.572 82.16-55.852 78.958-26.28-3.204-43.88-43.75-39.312-90.558 0-0.010 0.004-0.018 0.004-0.026 1.992-20.408 7.868-38.636 16.042-52.444-2.034-1.604-7.784-5.812-14.406-10.656-4.97-3.634-11.020-8.058-18.314-13.43-19.882 26.094-33.506 63.58-35.94 105.89zM665.26 199.822c-1.9-43.586-58.908-84.592-111.582-101.044l-0.296-0.096c-21.9-7.102-41.428-19.6-62.104-32.83-34.732-22.224-70.646-45.208-122.522-45.208-3.404 0-6.894 0.104-10.326 0.296-47.516 2.778-69.742 23.032-97.88 48.676-14.842 13.526-30.19 27.514-49.976 39.124l-0.424 0.244c-42.706 24.104-69.212 54.082-70.908 80.194-0.842 12.98 4.938 24.218 17.182 33.4 26.636 19.972 44.478 33.022 56.284 41.658 13.11 9.588 17.068 12.48 20 15.264 2.096 1.986 4.364 4.188 6.804 6.562 24.446 23.774 65.36 63.562 128.15 63.562 38.404 0 80.898-14.8 126.17-43.902 21.324-13.878 39.882-20.286 63.38-28.4 16.156-5.578 34.468-11.902 58.992-22.404l0.396-0.164c22.88-9.404 49.896-26.564 48.66-54.932zM652.646 302.194c-4.4 2.214-8.974 4.32-13.744 6.286-22.106 9.456-39.832 15.874-54.534 20.998 8.116 15.894 13.16 35.72 13.624 57.242 0 0.010 0 0.022 0 0.030 1.126 52.374-25.288 94.896-58.996 94.976-33.71 0.078-61.95-42.314-63.076-94.686 0-0.010 0-0.018 0-0.028-0.038-1.714-0.042-3.416-0.020-5.11-20.762 9.552-41.18 16.49-61.166 20.76-0.092 1.968-0.204 3.932-0.244 5.92 0 0.016 0 0.036 0 0.050-1.938 95.412 56.602 174.39 130.754 176.402 74.15 2.014 135.828-73.7 137.772-169.11 0-0.018 0-0.038 0-0.052 0.874-43.146-10.66-82.866-30.37-113.678z" />
<glyph unicode="&#xeac0;" glyph-name="android" d="M896 576c-35.2 0-64-28.8-64-64v-256c0-35.2 28.8-64 64-64s64 28.8 64 64v256c0 35.2-28.8 64-64 64zM128 576c-35.2 0-64-28.8-64-64v-256c0-35.2 28.8-64 64-64s64 28.8 64 64v256c0 35.2-28.802 64-64 64zM224 224c0-53.020 42.98-96 96-96v0-128c0-35.2 28.8-64 64-64s64 28.8 64 64v128h128v-128c0-35.2 28.8-64 64-64s64 28.8 64 64v128c53.020 0 96 42.98 96 96v352h-576v-352zM798.216 639.998c-9.716 87.884-59.004 163.792-129.62 209.646l32.024 64.046c7.904 15.806 1.496 35.028-14.31 42.932s-35.030 1.496-42.932-14.312l-32.142-64.286-8.35 3.316c-28.568 9.502-59.122 14.66-90.886 14.66-31.762 0-62.316-5.158-90.888-14.656l-8.348-3.316-32.142 64.282c-7.904 15.808-27.128 22.212-42.932 14.312-15.808-7.904-22.214-27.126-14.312-42.932l32.022-64.046c-70.616-45.852-119.904-121.762-129.622-209.644v-32h574.222v31.998h-1.784zM416 704c-17.674 0-32 14.328-32 32 0 17.648 14.288 31.958 31.93 31.996 0.032 0 0.062-0.002 0.094-0.002 0.018 0 0.036 0.002 0.052 0.002 17.638-0.042 31.924-14.35 31.924-31.996 0-17.672-14.326-32-32-32zM608 704c-17.674 0-32 14.328-32 32 0 17.646 14.286 31.954 31.924 31.996 0.016 0 0.034-0.002 0.050-0.002 0.032 0 0.064 0.002 0.096 0.002 17.64-0.038 31.93-14.348 31.93-31.996 0-17.672-14.326-32-32-32z" />
<glyph unicode="&#xeac6;" glyph-name="reddit" d="M256 320c0 35.346 28.654 64 64 64s64-28.654 64-64c0-35.346-28.654-64-64-64s-64 28.654-64 64zM640 320c0 35.346 28.654 64 64 64s64-28.654 64-64c0-35.346-28.654-64-64-64s-64 28.654-64 64zM643.112 183.222c16.482 12.986 40.376 10.154 53.364-6.332s10.152-40.378-6.334-53.366c-45.896-36.158-115.822-59.524-178.142-59.524-62.322 0-132.248 23.366-178.144 59.522-16.486 12.99-19.32 36.882-6.332 53.368 12.99 16.482 36.882 19.318 53.366 6.332 26.422-20.818 78.722-43.222 131.11-43.222s104.688 22.404 131.112 43.222zM1024 448c0 70.692-57.308 128-128 128-48.116 0-89.992-26.57-111.852-65.82-65.792 35.994-145.952 59.246-233.28 64.608l76.382 171.526 146.194-42.2c13.152-37.342 48.718-64.114 90.556-64.114 53.020 0 96 42.98 96 96s-42.98 96-96 96c-36.56 0-68.342-20.442-84.554-50.514l-162.906 47.024c-18.224 5.258-37.538-3.722-45.252-21.052l-103.77-233.026c-85.138-5.996-163.262-29.022-227.636-64.236-21.864 39.25-63.766 65.804-111.882 65.804-70.692 0-128-57.308-128-128 0-52.312 31.402-97.254 76.372-117.102-8.070-24.028-12.372-49.104-12.372-74.898 0-176.73 200.576-320 448-320 247.422 0 448 143.27 448 320 0 25.792-4.3 50.862-12.368 74.886 44.97 19.85 76.368 64.802 76.368 117.114zM864 772c19.882 0 36-16.118 36-36s-16.118-36-36-36-36 16.118-36 36 16.118 36 36 36zM64 448c0 35.29 28.71 64 64 64 25.508 0 47.572-15.004 57.846-36.646-33.448-25.366-61.166-54.626-81.666-86.738-23.524 9.47-40.18 32.512-40.18 59.384zM512 12c-205.45 0-372 109.242-372 244s166.55 244 372 244c205.45 0 372-109.242 372-244s-166.55-244-372-244zM919.82 388.616c-20.5 32.112-48.218 61.372-81.666 86.738 10.276 21.642 32.338 36.646 57.846 36.646 35.29 0 64-28.71 64-64 0-26.872-16.656-49.914-40.18-59.384z" />
<glyph unicode="&#xeacd;" glyph-name="delicious" d="M0 960v-1024h1024v1024h-1024zM512 0v448h-448v448h448v-448h448v-448h-448z" />
</font>
</defs>
</svg>
